<svg xmlns="http://www.w3.org/2000/svg" width="250" height="250" fill="none" viewBox="0 0 250 250">
<!-- SVG created with Arrow, by QuiverAI (https://quiver.ai) -->
  <path d="m139.2 60.59c-26.26 0-48.11 16.46-56.6 44.59-1.16 3.9-1.98 8.48-2.03 13.66 14.19 6.07 30.5 10.25 51.77 10.97v-25.94l-16.6 4.73c-2.07 0.78-2.48-1.25-1.3-2.28l24.43-30.82c0.93-1.2 2.14-0.78 2.65 0l25.31 31.28c1 1.13 0.13 2.38-1.11 1.98l-18.2-4.85v25.97c19.94-1.44 36.4-7.24 48.81-24.97 0.38-0.55 0.04-1.72-0.07-1.9-8.28-20.92-25.09-42.42-57.06-42.42z" fill="url(#paint0_linear_1316_5102)"/>
  <path d="m247.7 102.1c-1.46-10.09-9.72-16.08-18.14-16.08-11.6-0.34-16.76 7.1-23.41 19.54-4.11 7.57-10.97 16.07-19.1 20.53-12.88 7.28-25.15 10.36-47.45 10.53-21.96 0-42.13-3.74-63.47-12.42-5.85 2.64-11.22 2.82-19.26 1.85-1.29-0.27-1.86 1.09-1.16 2.22 5.04 6.6 29.19 20.74 79.96 21.67 25.71 0 43.2-3.76 62.19-15 9.94-6.4 17.3-10.61 33.94-13.7 7.08-1.73 15.85-7.53 16.16-12.74 0.19-2.32 0.11-4.18-0.26-6.4z" fill="url(#paint1_linear_1316_5102)"/>
  <path d="m181.8 148.2c0.49 2.83 0.49 6.86-1.7 13.56-0.93 1.97-3.21 5.3-1.93 7.48 0.73 1.13 1.71 1.1 2.87 1.1h9.31c1.41 0 2.61-0.85 3.37-1.55 6.27-5.1 13.27-14.33 14.55-21.9 0.68-4 0.53-7.15 0.04-11.29-0.17-0.75-0.82-0.91-1.32-0.41-8.7 7.13-16.65 11.04-25.19 13.01z" fill="url(#paint2_linear_1316_5102)"/>
  <path d="m84.88 147.1c-1.26 4.65-2.37 8.93-7.57 13.53-2.4 2.44-4.07 6.79-2.25 8.72 1.26 1.34 2.66 1.04 4.11 1.16 10.29-0.12 17.9-1.16 26.82-12.08 1.53-2.08 3.43-4.76 3.32-4.82-9.2-1.54-16.1-3.19-23.76-6.27-0.3-0.15-0.54-0.32-0.67-0.24z" fill="url(#paint3_linear_1316_5102)"/>
  <path d="m119.5 156.5h44.92c5.49 0 5.95 5.65 5.95 7.27 0 3.82-2.77 6.38-6.04 6.38h-44.63c-4.99 0-6.34-3.93-6.34-6.01-0.06-4.06 2.84-7.64 6.14-7.64z" fill="url(#paint4_linear_1316_5102)"/>
  <defs>
    <linearGradient id="paint0_linear_1316_5102" x1="129.5" x2="130" y1="53.5" y2="136" gradientUnits="userSpaceOnUse">
      <stop stop-color="#3439DD" offset="0"/>
      <stop stop-color="#2E37CD" offset="1"/>
    </linearGradient>
    <linearGradient id="paint1_linear_1316_5102" x1="151.8" x2="152.4" y1="82.91" y2="150.1" gradientUnits="userSpaceOnUse">
      <stop stop-color="#3439DD" offset="0"/>
      <stop stop-color="#2E37CD" offset="1"/>
    </linearGradient>
    <linearGradient id="paint2_linear_1316_5102" x1="192.9" x2="193.5" y1="133.5" y2="170.5" gradientUnits="userSpaceOnUse">
      <stop stop-color="#3439DD" offset="0"/>
      <stop stop-color="#2E37CD" offset="1"/>
    </linearGradient>
    <linearGradient id="paint3_linear_1316_5102" x1="91.5" x2="92" y1="145.5" y2="170.5" gradientUnits="userSpaceOnUse">
      <stop stop-color="#3439DD" offset="0"/>
      <stop stop-color="#2E37CD" offset="1"/>
    </linearGradient>
    <linearGradient id="paint4_linear_1316_5102" x1="141.7" x2="141.8" y1="155" y2="170.3" gradientUnits="userSpaceOnUse">
      <stop stop-color="#3439DD" offset="0"/>
      <stop stop-color="#2E37CD" offset="1"/>
    </linearGradient>
  </defs>
</svg>